
<svg width="20px" height="19px" viewBox="0 0 20 19" version="1.1" xmlns="http://www.w3.org/2000/svg" xmlns:xlink="http://www.w3.org/1999/xlink">
    <g id="Page-1" stroke="none" stroke-width="1" fill="none" fill-rule="evenodd">
        <g id="person-seat-reclined-white" transform="translate(0.000000, 0.000622)" fill-rule="nonzero">
            <path d="M3.35,3.63937804 C2.45,2.99937804 2.23,1.75937804 2.86,0.849378042 C3.49,-0.0506219577 4.74,-0.270621958 5.65,0.359378042 C6.55,0.999378042 6.77,2.23937804 6.14,3.14937804 C5.5,4.04937804 4.26,4.26937804 3.35,3.63937804 L3.35,3.63937804 Z M14,16.999378 L6.93,16.999378 C5.45,16.999378 4.19,15.919378 3.97,14.459378 L2,4.99937804 L0,4.99937804 L1.99,14.759378 C2.37,17.199378 4.47,18.999378 6.94,18.999378 L14,18.999378 L14,16.999378 Z M14.23,12.999378 L9.35,12.999378 L8.32,8.89937804 C9.9,9.78937804 11.6,10.439378 13.47,10.119378 L13.47,7.98937804 C11.84,8.29937804 10.03,7.71937804 8.78,6.73937804 L7.14,5.46937804 C6.91,5.28937804 6.65,5.16937804 6.38,5.08937804 C6.06,4.99937804 5.72,4.96937804 5.39,5.02937804 L5.37,5.02937804 C4.14,5.24937804 3.32,6.41937804 3.53,7.63937804 L4.88,13.559378 C5.16,14.979378 6.39,15.999378 7.83,15.999378 L14.68,15.999378 L18.5,18.999378 L20,17.499378 L14.23,12.999378 Z" id="Shape" fill="white"></path>
        </g>
    </g>
</svg>