<svg width="19" height="19" viewBox="0 0 19 19" fill="none" xmlns="http://www.w3.org/2000/svg">
<path d="M9.94896 4.44463C11.1764 4.44463 12.1714 3.44967 12.1714 2.22232C12.1714 0.994964 11.1764 0 9.94896 0C8.72156 0 7.72656 0.994964 7.72656 2.22232C7.72656 3.44967 8.72156 4.44463 9.94896 4.44463Z" fill="white"/>
<path d="M9.94267 19.0005C10.679 19.0005 11.276 18.4036 11.276 17.6672C11.276 16.9309 10.679 16.334 9.94267 16.334C9.20631 16.334 8.60938 16.9309 8.60938 17.6672C8.60938 18.4036 9.20631 19.0005 9.94267 19.0005Z" fill="white"/>
<path d="M4.48468 6.48288C5.58942 6.48288 6.48498 5.58734 6.48498 4.48265C6.48498 3.37795 5.58942 2.48242 4.48468 2.48242C3.37994 2.48242 2.48438 3.37795 2.48438 4.48265C2.48438 5.58734 3.37994 6.48288 4.48468 6.48288Z" fill="white"/>
<path d="M15.4081 16.5153C16.0218 16.5153 16.5193 16.0178 16.5193 15.4041C16.5193 14.7905 16.0218 14.293 15.4081 14.293C14.7944 14.293 14.2969 14.7905 14.2969 15.4041C14.2969 16.0178 14.7944 16.5153 15.4081 16.5153Z" fill="white"/>
<path d="M2.2228 11.7228C3.20448 11.7228 4.00029 10.927 4.00029 9.94539C4.00029 8.96375 3.20448 8.16797 2.2228 8.16797C1.24112 8.16797 0.445312 8.96375 0.445312 9.94539C0.445312 10.927 1.24112 11.7228 2.2228 11.7228Z" fill="white"/>
<path d="M17.6696 10.8333C18.1603 10.8333 18.558 10.4356 18.558 9.94499C18.558 9.45437 18.1603 9.05664 17.6696 9.05664C17.179 9.05664 16.7812 9.45437 16.7812 9.94499C16.7812 10.4356 17.179 10.8333 17.6696 10.8333Z" fill="white"/>
<path d="M3.3856 14.3063C2.77772 14.9141 2.77772 15.8976 3.3856 16.5055C3.99275 17.1134 4.97776 17.1134 5.58492 16.5055C6.1928 15.8976 6.1928 14.9141 5.58492 14.3063C4.97776 13.6977 3.99348 13.6919 3.3856 14.3063Z" fill="white"/>
<path d="M15.4085 5.14893C15.7765 5.14893 16.0748 4.85063 16.0748 4.48267C16.0748 4.1147 15.7765 3.81641 15.4085 3.81641C15.0405 3.81641 14.7422 4.1147 14.7422 4.48267C14.7422 4.85063 15.0405 5.14893 15.4085 5.14893Z" fill="white"/>
</svg>
