<svg width="164" height="55" viewBox="0 0 164 55" fill="none" xmlns="http://www.w3.org/2000/svg">
<path d="M64.9968 24.7313C67.0417 20.9784 68.5688 17.694 69.5783 14.8783C69.7169 14.5313 70.0607 14.3468 70.6099 14.3246L73.6549 14.2129C73.7986 14.2128 73.9334 14.2494 74.0594 14.3227C74.4015 14.5455 74.4453 14.9252 74.1909 15.4616C74.0483 15.761 73.9003 16.0669 73.7468 16.3792C71.4855 21.1206 68.9827 25.6966 66.2384 30.1071L64.5757 40.0566C64.4759 40.5801 64.141 40.8717 63.5711 40.9315L60.5381 41.1859C60.3834 41.1989 60.2436 41.1747 60.1187 41.1133C59.7925 40.9371 59.6635 40.6125 59.7316 40.1396L61.4031 30.0816C61.3133 29.0111 61.0944 27.5442 60.7464 25.6809C60.0336 21.8957 59.3222 18.9848 58.6124 16.9482C58.4665 16.6371 58.4232 16.3353 58.4825 16.0428C58.5784 15.6155 58.8395 15.372 59.2657 15.3123L62.1083 14.9301C62.3095 14.9012 62.4706 14.8937 62.5916 14.9075C62.882 14.943 63.0898 15.2071 63.215 15.6997C64.0147 18.8068 64.6086 21.8173 64.9968 24.7313ZM79.5091 28.311L83.3807 27.9862L83.2358 18.7633L79.5091 28.311ZM77.7779 32.7324L75.2361 39.2701C75.0064 39.8164 74.5744 40.0922 73.94 40.0975L71.1477 40.224C71.1359 40.2249 71.1121 40.2269 71.0764 40.2299C70.3102 40.2343 70.0353 39.8142 70.252 38.9695L80.2451 15.0255C80.3144 14.852 80.4015 14.677 80.5065 14.5005C80.9185 13.8431 81.4456 13.4874 82.0879 13.4335L86.1885 13.0536C86.4135 13.0227 86.6246 13.0409 86.8219 13.1082C87.39 13.3121 87.6906 13.8259 87.7238 14.6496L88.3584 38.0613C88.329 38.5669 87.9941 38.8585 87.3538 38.9362L84.4635 39.1787C84.3802 39.1856 84.2965 39.1867 84.2122 39.1818C83.7522 39.1245 83.5355 38.8253 83.5619 38.2841L83.4515 32.2564L77.7779 32.7324ZM98.8243 21.8933C100.869 18.1403 102.396 14.856 103.406 12.0403C103.544 11.6933 103.888 11.5087 104.437 11.4866L107.482 11.3749C107.626 11.3748 107.761 11.4114 107.887 11.4847C108.229 11.7075 108.273 12.0871 108.018 12.6235C107.876 12.923 107.728 13.2288 107.574 13.5412C105.313 18.2825 102.81 22.8585 100.066 27.2691L98.4032 37.2186C98.3034 37.742 97.9685 38.0336 97.3986 38.0934L94.3655 38.3479C94.2109 38.3609 94.0711 38.3367 93.9462 38.2753C93.62 38.099 93.4909 37.7745 93.559 37.3016L95.2306 27.2435C95.1408 26.1731 94.9219 24.7061 94.5739 22.8428C93.8611 19.0577 93.1497 16.1468 92.4398 14.1102C92.2939 13.799 92.2506 13.4972 92.31 13.2048C92.4059 12.7775 92.6669 12.534 93.0931 12.4743L95.9358 12.092C96.137 12.0632 96.2981 12.0557 96.419 12.0695C96.7095 12.105 96.9173 12.369 97.0424 12.8616C97.8421 15.9687 98.4361 18.9793 98.8243 21.8933ZM120.174 21.7371L126.24 21.2282C126.895 21.1852 127.177 21.5448 127.085 22.3072L126.834 24.4484C126.81 24.5941 126.763 24.7418 126.691 24.8915C126.461 25.2941 126.156 25.5114 125.776 25.5433L119.442 26.0747L117.85 35.587C117.751 36.1105 117.416 36.4021 116.846 36.4619L113.813 36.7163C113.658 36.7293 113.518 36.7051 113.393 36.6437C113.067 36.4674 112.938 36.1429 113.006 35.67L116.515 14.7494L115.249 14.8557C115.154 14.8637 115.064 14.8652 114.98 14.8603C114.497 14.817 114.325 14.4062 114.463 13.628L114.845 11.3321C114.875 11.114 114.915 10.9489 114.965 10.8369C115.036 10.6753 115.214 10.5825 115.499 10.5585L118.104 10.34L121.137 10.0855L128.737 9.44787C129.44 9.40089 129.746 9.75855 129.654 10.5209L129.367 12.6651C129.343 12.8108 129.29 12.959 129.206 13.1097C128.965 13.5133 128.642 13.7321 128.237 13.766L121.404 14.3393L120.174 21.7371ZM132.514 9.92155C132.614 9.39812 132.949 9.10651 133.519 9.04671L136.552 8.79225C136.707 8.77927 136.846 8.80348 136.971 8.86487C137.298 9.04113 137.427 9.36568 137.358 9.83854L133.849 30.7591L140.683 30.1858C141.385 30.1389 141.691 30.4965 141.599 31.2588L141.312 33.4031C141.288 33.5488 141.235 33.697 141.151 33.8477C140.91 34.2513 140.587 34.47 140.182 34.504L129.228 35.423C129.073 35.436 128.933 35.4118 128.808 35.3504C128.482 35.1742 128.353 34.8496 128.421 34.3767L132.514 9.92155ZM151.421 17.4806C153.466 13.7276 154.993 10.4432 156.002 7.62754C156.141 7.28053 156.485 7.09597 157.034 7.07385L160.079 6.96212C160.223 6.96204 160.358 6.99864 160.484 7.07192C160.826 7.29476 160.869 7.67438 160.615 8.21078C160.472 8.51022 160.324 8.8161 160.171 9.12842C157.91 13.8698 155.407 18.4458 152.663 22.8563L151 32.8059C150.9 33.3293 150.565 33.6209 149.995 33.6807L146.962 33.9352C146.808 33.9481 146.668 33.9239 146.543 33.8625C146.217 33.6863 146.088 33.3617 146.156 32.8889L147.827 22.8308C147.737 21.7603 147.519 20.2934 147.171 18.4301C146.458 14.6449 145.746 11.7341 145.037 9.69745C144.891 9.38628 144.847 9.08447 144.907 8.79202C145.003 8.36475 145.264 8.12125 145.69 8.06154L148.532 7.67931C148.734 7.65045 148.895 7.64293 149.016 7.65673C149.306 7.69226 149.514 7.95631 149.639 8.44888C150.439 11.556 151.033 14.5665 151.421 17.4806Z" fill="#0B0A3E"/>
<path d="M20.1454 25.0529L0 26.6465L0.0454819 27.2214C0.197685 29.1455 1.8869 30.587 3.81095 30.4348L15.678 29.4961L15.8032 31.0783L4.58743 31.9655L4.63291 32.5404C4.78511 34.4644 6.47432 35.906 8.39838 35.7538L19.0336 34.9125L19.1588 36.4946L9.1748 37.2844L9.22029 37.8594C9.37249 39.7834 11.0617 41.225 12.9858 41.0728L23.9134 40.2084L24.1694 43.4448L28.473 43.1043L27.5445 31.3672C27.2454 27.5863 23.9262 24.7538 20.1454 25.0529Z" fill="#0B0A3E"/>
<path d="M26.7625 16.591L47.0234 14.9883L47.0677 15.5476C47.2157 17.4192 45.7618 19.0664 43.8267 19.2195L31.8916 20.1637L32.0134 21.7027L43.2934 20.8104L43.3377 21.3696C43.4857 23.2412 42.0318 24.8885 40.0967 25.0416L29.4005 25.8877L29.5222 27.4267L39.5635 26.6324L39.6077 27.1917C39.7558 29.0633 38.3019 30.7106 36.3668 30.8637L25.3765 31.733L25.6255 34.8812L21.2973 35.2236L20.3941 23.8064C20.1032 20.1286 22.96 16.8918 26.7625 16.591Z" fill="#0B0A3E"/>
</svg>
